<mxfile host="app.diagrams.net" modified="2022-04-25T19:43:41.775Z" agent="5.0 (Windows NT 10.0; Win64; x64) AppleWebKit/537.36 (KHTML, like Gecko) Chrome/100.0.4896.127 Safari/537.36" etag="hrBKZtnNzEy4TTvG4W0o" version="17.4.6" type="github">
  <diagram id="kgpKYQtTHZ0yAKxKKP6v" name="Page-1">
    <mxGraphModel dx="980" dy="439" grid="1" gridSize="10" guides="1" tooltips="1" connect="1" arrows="1" fold="1" page="1" pageScale="1" pageWidth="850" pageHeight="1100" math="0" shadow="0">
      <root>
        <mxCell id="0" />
        <mxCell id="1" parent="0" />
        <mxCell id="BW38fWApOTOGJ_fLQMFb-51" value="enviar email do numero de compra e transacao" style="verticalAlign=bottom;endArrow=block;shadow=0;strokeWidth=1;" edge="1" parent="1" target="BW38fWApOTOGJ_fLQMFb-53">
          <mxGeometry x="-0.0417" relative="1" as="geometry">
            <mxPoint x="240.00034482758633" y="340" as="sourcePoint" />
            <mxPoint x="859.23" y="340.6600000000001" as="targetPoint" />
            <mxPoint as="offset" />
            <Array as="points">
              <mxPoint x="270.19000000000005" y="340" />
            </Array>
          </mxGeometry>
        </mxCell>
        <mxCell id="BW38fWApOTOGJ_fLQMFb-42" value="" style="verticalAlign=bottom;endArrow=block;shadow=0;strokeWidth=1;entryX=0.123;entryY=-0.013;entryDx=0;entryDy=0;entryPerimeter=0;" edge="1" parent="1" source="BW38fWApOTOGJ_fLQMFb-2" target="BW38fWApOTOGJ_fLQMFb-44">
          <mxGeometry x="-0.0417" relative="1" as="geometry">
            <mxPoint x="610" y="219.66" as="sourcePoint" />
            <mxPoint x="490" y="220" as="targetPoint" />
            <Array as="points">
              <mxPoint x="640" y="205" />
              <mxPoint x="600" y="205" />
            </Array>
            <mxPoint as="offset" />
          </mxGeometry>
        </mxCell>
        <mxCell id="BW38fWApOTOGJ_fLQMFb-5" value="cadastrar livro" style="verticalAlign=bottom;endArrow=block;shadow=0;strokeWidth=1;" edge="1" parent="1" source="3nuBFxr9cyL0pnOWT2aG-1">
          <mxGeometry x="-0.0417" relative="1" as="geometry">
            <mxPoint x="270" y="200" as="sourcePoint" />
            <mxPoint x="220" y="200" as="targetPoint" />
            <mxPoint as="offset" />
            <Array as="points">
              <mxPoint x="110" y="200" />
            </Array>
          </mxGeometry>
        </mxCell>
        <mxCell id="3nuBFxr9cyL0pnOWT2aG-1" value="administrador" style="shape=umlLifeline;perimeter=lifelinePerimeter;container=1;collapsible=0;recursiveResize=0;rounded=0;shadow=0;strokeWidth=1;" parent="1" vertex="1">
          <mxGeometry x="30" y="70" width="100" height="300" as="geometry" />
        </mxCell>
        <mxCell id="3nuBFxr9cyL0pnOWT2aG-2" value="" style="points=[];perimeter=orthogonalPerimeter;rounded=0;shadow=0;strokeWidth=1;" parent="3nuBFxr9cyL0pnOWT2aG-1" vertex="1">
          <mxGeometry x="45" y="70" width="10" height="190" as="geometry" />
        </mxCell>
        <mxCell id="3nuBFxr9cyL0pnOWT2aG-5" value="visitante" style="shape=umlLifeline;perimeter=lifelinePerimeter;container=1;collapsible=0;recursiveResize=0;rounded=0;shadow=0;strokeWidth=1;" parent="1" vertex="1">
          <mxGeometry x="360" y="70" width="155" height="230" as="geometry" />
        </mxCell>
        <mxCell id="BW38fWApOTOGJ_fLQMFb-7" style="edgeStyle=orthogonalEdgeStyle;rounded=0;orthogonalLoop=1;jettySize=auto;html=1;" edge="1" parent="3nuBFxr9cyL0pnOWT2aG-5" target="BW38fWApOTOGJ_fLQMFb-6">
          <mxGeometry relative="1" as="geometry">
            <mxPoint x="82.5" y="130.0344827586207" as="sourcePoint" />
            <Array as="points">
              <mxPoint x="100" y="130" />
              <mxPoint x="100" y="190" />
            </Array>
          </mxGeometry>
        </mxCell>
        <mxCell id="BW38fWApOTOGJ_fLQMFb-6" value="" style="points=[];perimeter=orthogonalPerimeter;rounded=0;shadow=0;strokeWidth=1;" vertex="1" parent="3nuBFxr9cyL0pnOWT2aG-5">
          <mxGeometry x="72.5" y="120" width="10" height="90" as="geometry" />
        </mxCell>
        <mxCell id="BW38fWApOTOGJ_fLQMFb-21" value="" style="verticalAlign=bottom;endArrow=block;shadow=0;strokeWidth=1;" edge="1" parent="3nuBFxr9cyL0pnOWT2aG-5">
          <mxGeometry x="-0.0417" relative="1" as="geometry">
            <mxPoint x="242.5" y="80" as="sourcePoint" />
            <mxPoint x="-110" y="80" as="targetPoint" />
            <Array as="points">
              <mxPoint x="280" y="80" />
            </Array>
            <mxPoint as="offset" />
          </mxGeometry>
        </mxCell>
        <mxCell id="BW38fWApOTOGJ_fLQMFb-44" value="&lt;div style=&quot;text-align: center ; font-size: 11px&quot;&gt;&lt;font face=&quot;helvetica&quot; style=&quot;font-size: 11px&quot;&gt;&lt;span style=&quot;font-size: 11px ; background-color: rgb(255 , 255 , 255)&quot;&gt;colocar no carrinho&lt;/span&gt;&lt;/font&gt;&lt;/div&gt;" style="text;whiteSpace=wrap;html=1;rotation=90;fontSize=11;" vertex="1" parent="3nuBFxr9cyL0pnOWT2aG-5">
          <mxGeometry x="90" y="150" width="65" height="20" as="geometry" />
        </mxCell>
        <mxCell id="3nuBFxr9cyL0pnOWT2aG-8" value="manter cliente" style="verticalAlign=bottom;endArrow=block;shadow=0;strokeWidth=1;" parent="1" source="3nuBFxr9cyL0pnOWT2aG-2" edge="1">
          <mxGeometry x="-0.0417" relative="1" as="geometry">
            <mxPoint x="448" y="150" as="sourcePoint" />
            <mxPoint x="220" y="150" as="targetPoint" />
            <Array as="points">
              <mxPoint x="140" y="150" />
            </Array>
            <mxPoint as="offset" />
          </mxGeometry>
        </mxCell>
        <mxCell id="BW38fWApOTOGJ_fLQMFb-1" value="cliente" style="shape=umlLifeline;perimeter=lifelinePerimeter;container=1;collapsible=0;recursiveResize=0;rounded=0;shadow=0;strokeWidth=1;" vertex="1" parent="1">
          <mxGeometry x="590" y="70" width="100" height="230" as="geometry" />
        </mxCell>
        <mxCell id="BW38fWApOTOGJ_fLQMFb-20" value="" style="points=[];perimeter=orthogonalPerimeter;rounded=0;shadow=0;strokeWidth=1;" vertex="1" parent="BW38fWApOTOGJ_fLQMFb-1">
          <mxGeometry x="45" y="70" width="10" height="30" as="geometry" />
        </mxCell>
        <mxCell id="BW38fWApOTOGJ_fLQMFb-45" value="" style="points=[];perimeter=orthogonalPerimeter;rounded=0;shadow=0;strokeWidth=1;" vertex="1" parent="BW38fWApOTOGJ_fLQMFb-1">
          <mxGeometry x="45" y="170" width="10" height="30" as="geometry" />
        </mxCell>
        <mxCell id="BW38fWApOTOGJ_fLQMFb-49" value="comprar livro" style="verticalAlign=bottom;endArrow=block;shadow=0;strokeWidth=1;" edge="1" parent="BW38fWApOTOGJ_fLQMFb-1">
          <mxGeometry x="-0.0417" relative="1" as="geometry">
            <mxPoint x="45" y="189.99999999999997" as="sourcePoint" />
            <mxPoint x="-100" y="190.34" as="targetPoint" />
            <Array as="points">
              <mxPoint x="-35" y="189.99999999999997" />
            </Array>
            <mxPoint as="offset" />
          </mxGeometry>
        </mxCell>
        <mxCell id="BW38fWApOTOGJ_fLQMFb-2" value="" style="points=[];perimeter=orthogonalPerimeter;rounded=0;shadow=0;strokeWidth=1;" vertex="1" parent="BW38fWApOTOGJ_fLQMFb-1">
          <mxGeometry x="45" y="130" width="10" height="30" as="geometry" />
        </mxCell>
        <mxCell id="BW38fWApOTOGJ_fLQMFb-17" value="&lt;span style=&quot;color: rgb(0 , 0 , 0) ; font-family: &amp;#34;helvetica&amp;#34; ; font-size: 11px ; font-style: normal ; font-weight: 400 ; letter-spacing: normal ; text-align: center ; text-indent: 0px ; text-transform: none ; word-spacing: 0px ; background-color: rgb(255 , 255 , 255) ; display: inline ; float: none&quot;&gt;cadastrar cliente&lt;/span&gt;" style="text;whiteSpace=wrap;html=1;fontSize=11;" vertex="1" parent="1">
          <mxGeometry x="515" y="130" width="90" height="30" as="geometry" />
        </mxCell>
        <mxCell id="BW38fWApOTOGJ_fLQMFb-22" value="" style="shape=flexArrow;endArrow=classic;html=1;rounded=0;fontSize=11;width=8.965517241379311;endSize=7.386206896551725;endWidth=20.694444444444443;" edge="1" parent="1">
          <mxGeometry width="50" height="50" relative="1" as="geometry">
            <mxPoint x="590" y="90" as="sourcePoint" />
            <mxPoint x="515" y="90" as="targetPoint" />
            <Array as="points" />
          </mxGeometry>
        </mxCell>
        <mxCell id="BW38fWApOTOGJ_fLQMFb-23" value="management system" style="shape=umlLifeline;perimeter=lifelinePerimeter;container=1;collapsible=0;recursiveResize=0;rounded=0;shadow=0;strokeWidth=1;" vertex="1" parent="1">
          <mxGeometry x="170" y="70" width="135" height="310" as="geometry" />
        </mxCell>
        <mxCell id="BW38fWApOTOGJ_fLQMFb-27" value="cadastrar cliente" style="verticalAlign=bottom;endArrow=block;shadow=0;strokeWidth=1;" edge="1" parent="BW38fWApOTOGJ_fLQMFb-23">
          <mxGeometry x="-0.0417" relative="1" as="geometry">
            <mxPoint x="-85.18965517241372" y="169.66" as="sourcePoint" />
            <mxPoint x="50" y="170" as="targetPoint" />
            <mxPoint as="offset" />
            <Array as="points">
              <mxPoint x="-55" y="169.66" />
            </Array>
          </mxGeometry>
        </mxCell>
        <mxCell id="BW38fWApOTOGJ_fLQMFb-33" style="edgeStyle=orthogonalEdgeStyle;rounded=0;orthogonalLoop=1;jettySize=auto;html=1;startArrow=none;" edge="1" parent="BW38fWApOTOGJ_fLQMFb-23">
          <mxGeometry relative="1" as="geometry">
            <mxPoint x="67.51724137931046" y="160" as="sourcePoint" />
            <mxPoint x="80" y="170" as="targetPoint" />
            <Array as="points">
              <mxPoint x="68" y="80" />
              <mxPoint x="100" y="80" />
              <mxPoint x="100" y="170" />
            </Array>
          </mxGeometry>
        </mxCell>
        <mxCell id="BW38fWApOTOGJ_fLQMFb-35" value="&lt;div style=&quot;text-align: center ; font-size: 11px&quot;&gt;&lt;font face=&quot;helvetica&quot; style=&quot;font-size: 11px&quot;&gt;&lt;span style=&quot;font-size: 11px ; background-color: rgb(255 , 255 , 255)&quot;&gt;autenticar cliente&lt;/span&gt;&lt;/font&gt;&lt;/div&gt;" style="text;whiteSpace=wrap;html=1;rotation=90;fontSize=11;" vertex="1" parent="BW38fWApOTOGJ_fLQMFb-23">
          <mxGeometry x="90" y="110" width="65" height="20" as="geometry" />
        </mxCell>
        <mxCell id="BW38fWApOTOGJ_fLQMFb-24" value="" style="points=[];perimeter=orthogonalPerimeter;rounded=0;shadow=0;strokeWidth=1;" vertex="1" parent="BW38fWApOTOGJ_fLQMFb-23">
          <mxGeometry x="62.5" y="70" width="10" height="220" as="geometry" />
        </mxCell>
        <mxCell id="BW38fWApOTOGJ_fLQMFb-37" value="" style="points=[];perimeter=orthogonalPerimeter;rounded=0;shadow=0;strokeWidth=1;" vertex="1" parent="BW38fWApOTOGJ_fLQMFb-23">
          <mxGeometry x="52.5" y="120" width="10" height="20" as="geometry" />
        </mxCell>
        <mxCell id="BW38fWApOTOGJ_fLQMFb-32" value="enviar email de autenticação de usuario" style="verticalAlign=bottom;endArrow=block;shadow=0;strokeWidth=1;entryX=0.018;entryY=0.576;entryDx=0;entryDy=0;entryPerimeter=0;" edge="1" parent="BW38fWApOTOGJ_fLQMFb-23" target="BW38fWApOTOGJ_fLQMFb-38">
          <mxGeometry x="-0.0417" relative="1" as="geometry">
            <mxPoint x="72.50034482758633" y="240" as="sourcePoint" />
            <mxPoint x="680" y="240" as="targetPoint" />
            <mxPoint as="offset" />
            <Array as="points">
              <mxPoint x="102.69000000000005" y="240" />
            </Array>
          </mxGeometry>
        </mxCell>
        <mxCell id="BW38fWApOTOGJ_fLQMFb-39" value="" style="points=[];perimeter=orthogonalPerimeter;rounded=0;shadow=0;strokeWidth=1;" vertex="1" parent="BW38fWApOTOGJ_fLQMFb-23">
          <mxGeometry x="72.5" y="190" width="10" height="20" as="geometry" />
        </mxCell>
        <mxCell id="BW38fWApOTOGJ_fLQMFb-28" value="email system" style="shape=umlLifeline;perimeter=lifelinePerimeter;container=1;collapsible=0;recursiveResize=0;rounded=0;shadow=0;strokeWidth=1;" vertex="1" parent="1">
          <mxGeometry x="740" y="70" width="120" height="300" as="geometry" />
        </mxCell>
        <mxCell id="BW38fWApOTOGJ_fLQMFb-38" value="" style="points=[];perimeter=orthogonalPerimeter;rounded=0;shadow=0;strokeWidth=1;" vertex="1" parent="BW38fWApOTOGJ_fLQMFb-28">
          <mxGeometry x="55" y="230" width="10" height="20" as="geometry" />
        </mxCell>
        <mxCell id="BW38fWApOTOGJ_fLQMFb-53" value="" style="points=[];perimeter=orthogonalPerimeter;rounded=0;shadow=0;strokeWidth=1;" vertex="1" parent="BW38fWApOTOGJ_fLQMFb-28">
          <mxGeometry x="55" y="260" width="10" height="20" as="geometry" />
        </mxCell>
        <mxCell id="BW38fWApOTOGJ_fLQMFb-40" value="" style="verticalAlign=bottom;endArrow=block;shadow=0;strokeWidth=1;" edge="1" parent="1">
          <mxGeometry x="-0.0417" relative="1" as="geometry">
            <mxPoint x="400" y="270" as="sourcePoint" />
            <mxPoint x="260" y="270" as="targetPoint" />
            <Array as="points">
              <mxPoint x="437.5" y="270" />
            </Array>
            <mxPoint as="offset" />
          </mxGeometry>
        </mxCell>
        <mxCell id="BW38fWApOTOGJ_fLQMFb-41" value="&lt;div style=&quot;text-align: center; font-size: 11px;&quot;&gt;&lt;font face=&quot;helvetica&quot; style=&quot;font-size: 11px;&quot;&gt;&lt;span style=&quot;font-size: 11px; background-color: rgb(255, 255, 255);&quot;&gt;buscar livro&lt;/span&gt;&lt;/font&gt;&lt;/div&gt;" style="text;whiteSpace=wrap;html=1;rotation=0;fontSize=11;" vertex="1" parent="1">
          <mxGeometry x="310" y="250" width="65" height="20" as="geometry" />
        </mxCell>
        <mxCell id="BW38fWApOTOGJ_fLQMFb-43" value="&lt;div style=&quot;text-align: center; font-size: 11px;&quot;&gt;&lt;font face=&quot;helvetica&quot; style=&quot;font-size: 11px;&quot;&gt;&lt;span style=&quot;font-size: 11px; background-color: rgb(255, 255, 255);&quot;&gt;buscar livro&lt;/span&gt;&lt;/font&gt;&lt;/div&gt;" style="text;whiteSpace=wrap;html=1;rotation=0;fontSize=11;" vertex="1" parent="1">
          <mxGeometry x="535" y="180" width="70" height="20" as="geometry" />
        </mxCell>
      </root>
    </mxGraphModel>
  </diagram>
</mxfile>
